# Blender v2.78 (sub 0) OBJ File: 'hex.blend'
# www.blender.org
mtllib hex.mtl
o Cube_Cube.001
v -1.000000 -0.500000 0.000000
v -0.500000 -0.500000 0.866020
v 0.500000 -0.500000 0.866025
v 1.000000 -0.500000 0.000000
v -0.500000 -0.500000 -0.866025
v 0.500000 -0.500000 -0.866025
v 1.000000 0.500000 0.000000
v 0.500000 0.500000 -0.866025
v -0.500000 0.500000 -0.866025
v -1.000000 0.500000 0.000000
v -0.500000 0.500000 0.866020
v 0.500000 0.500000 0.866025
vt 0.6163 0.9695
vt 0.9653 0.6205
vt 0.9653 0.9695
vt 0.6163 0.6205
vt 0.6163 0.9695
vt 0.9653 0.6205
vt 0.9653 0.9695
vt 0.6163 0.6205
vt 0.6163 0.9695
vt 0.9653 0.6205
vt 0.9653 0.9695
vt 0.6163 0.6205
vt 0.6163 0.9695
vt 0.9653 0.6205
vt 0.9653 0.9695
vt 0.6163 0.6205
vt 0.6163 0.9695
vt 0.9653 0.6205
vt 0.9653 0.9695
vt 0.6163 0.6205
vt 0.6163 0.9695
vt 0.9653 0.6205
vt 0.9653 0.9695
vt 0.6163 0.6205
vt 0.6397 0.5905
vt 0.3862 0.4442
vt 0.8932 0.4442
vt 0.8932 0.1514
vt 0.3862 0.1514
vt 0.6397 0.0051
vt 0.2758 0.9953
vt 0.0201 0.5524
vt 0.2758 0.4048
vt 0.5315 0.8477
vt 0.5315 0.5524
vt 0.0201 0.8477
vn 0.8660 0.0000 -0.5000
vn 0.8660 0.0000 0.5000
vn -0.0000 0.0000 1.0000
vn -0.8660 0.0000 0.5000
vn -0.8660 0.0000 -0.5000
vn 0.0000 0.0000 -1.0000
vn 0.0000 1.0000 0.0000
vn 0.0000 -1.0000 0.0000
usemtl Material.001
s off
f 6/1/1 7/2/1 4/3/1
f 6/1/1 8/4/1 7/2/1
usemtl Material.002
f 4/5/2 12/6/2 3/7/2
f 4/5/2 7/8/2 12/6/2
usemtl Material.003
f 3/9/3 11/10/3 2/11/3
f 3/9/3 12/12/3 11/10/3
usemtl Material.004
f 2/13/4 10/14/4 1/15/4
f 2/13/4 11/16/4 10/14/4
usemtl Material.005
f 1/17/5 9/18/5 5/19/5
f 1/17/5 10/20/5 9/18/5
usemtl Material.006
f 5/21/6 8/22/6 6/23/6
f 5/21/6 9/24/6 8/22/6
usemtl Material.007
f 12/25/7 7/26/7 11/27/7
f 10/28/7 11/27/7 7/26/7
f 7/26/7 8/29/7 10/28/7
f 9/30/7 10/28/7 8/29/7
usemtl Material.008
f 1/31/8 6/32/8 4/33/8
f 2/34/8 4/33/8 3/35/8
f 1/31/8 5/36/8 6/32/8
f 2/34/8 1/31/8 4/33/8
