# Blender v2.78 (sub 0) OBJ File: ''
# www.blender.org
mtllib hex_1.mtl
o Cube_Cube.001
v 0.500000 -0.500000 -1.000000
v 1.000000 0.500000 0.000000
v 1.000000 -0.500000 -0.000000
v 0.500000 0.500000 -1.000000
v 0.500000 0.500000 1.000000
v 0.500000 -0.500000 1.000000
v -0.500000 0.500000 1.000000
v -0.500000 -0.500000 1.000000
v -1.000000 0.500000 0.000000
v -1.000000 -0.500000 -0.000000
v -0.500000 0.500000 -1.000000
v -0.500000 -0.500000 -1.000000
vt 0.6163 0.9695
vt 0.9653 0.6205
vt 0.9653 0.9695
vt 0.6163 0.6205
vt 0.6397 0.5905
vt 0.3862 0.4442
vt 0.8932 0.4442
vt 0.8932 0.1514
vt 0.3862 0.1514
vt 0.6397 0.0051
vt 0.6163 0.9695
vt 0.9653 0.6205
vt 0.9653 0.9695
vt 0.6163 0.6205
vt 0.6163 0.9695
vt 0.9653 0.6205
vt 0.9653 0.9695
vt 0.6163 0.6205
vt 0.2758 0.9953
vt 0.0201 0.5524
vt 0.2758 0.4048
vt 0.5315 0.8477
vt 0.5315 0.5524
vt 0.0201 0.8477
vt 0.6163 0.9695
vt 0.9653 0.6205
vt 0.9653 0.9695
vt 0.6163 0.6205
vt 0.6163 0.9695
vt 0.9653 0.6205
vt 0.9653 0.9695
vt 0.6163 0.6205
vt 0.6163 0.9695
vt 0.9653 0.6205
vt 0.9653 0.9695
vt 0.6163 0.6205
vn 0.8944 0.0000 -0.4472
vn 0.0000 1.0000 0.0000
vn 0.0000 -0.0000 1.0000
vn 0.8944 -0.0000 0.4472
vn 0.0000 -1.0000 -0.0000
vn -0.8944 -0.0000 0.4472
vn -0.8944 0.0000 -0.4472
vn 0.0000 0.0000 -1.0000
usemtl Material.001
s 1
f 1/1/1 2/2/1 3/3/1
f 1/1/1 4/4/1 2/2/1
usemtl Material.007
f 5/5/2 2/6/2 7/7/2
f 9/8/2 7/7/2 2/6/2
f 2/6/2 4/9/2 9/8/2
f 11/10/2 9/8/2 4/9/2
usemtl Material.003
f 6/11/3 7/12/3 8/13/3
f 6/11/3 5/14/3 7/12/3
usemtl Material.002
f 3/15/4 5/16/4 6/17/4
f 3/15/4 2/18/4 5/16/4
usemtl Material.008
f 10/19/5 1/20/5 3/21/5
f 8/22/5 3/21/5 6/23/5
f 10/19/5 12/24/5 1/20/5
f 8/22/5 10/19/5 3/21/5
usemtl Material.004
f 8/25/6 9/26/6 10/27/6
f 8/25/6 7/28/6 9/26/6
usemtl Material.005
f 10/29/7 11/30/7 12/31/7
f 10/29/7 9/32/7 11/30/7
usemtl Material.006
f 12/33/8 4/34/8 1/35/8
f 12/33/8 11/36/8 4/34/8
